<?xml version="1.0" encoding="UTF-8"?>
<svg xmlns="http://www.w3.org/2000/svg" viewBox="0 0 1400 930"
     font-family="ui-sans-serif,system-ui,-apple-system,Helvetica Neue,sans-serif">
<defs>
  <marker id="arr" viewBox="0 0 10 10" refX="8" refY="5" markerWidth="5" markerHeight="5" orient="auto-start-reverse">
    <path d="M2 1L8 5L2 9" fill="none" stroke="context-stroke" stroke-width="1.5" stroke-linecap="round" stroke-linejoin="round"/>
  </marker>
</defs>

<rect width="1400" height="930" fill="#F8F8F6"/>

<!-- HEADER -->
<rect x="0" y="0" width="1400" height="54" fill="#2C2C2A"/>
<text x="700" y="22" text-anchor="middle" font-size="15" font-weight="600" fill="#FAFAF8">BuzzPit — Architecture Map</text>
<text x="700" y="44" text-anchor="middle" font-size="11" fill="#B4B2A9">MERN Stack · Node.js / Express · React / React Router · MongoDB · PayPal</text>

<!-- ────────────────────────────────
     BACKEND PANEL  x=15..415
──────────────────────────────── -->
<rect x="15" y="62" width="400" height="512" rx="8" fill="#FAFAF8" stroke="#D3D1C7" stroke-width="1"/>
<text x="215" y="82" text-anchor="middle" font-size="10" font-weight="600" fill="#5F5E5A" letter-spacing="1.5">BACKEND  (Node · Express)</text>

<!-- server.js -->
<rect x="148" y="92" width="138" height="40" rx="6" fill="#EEEDFE" stroke="#534AB7" stroke-width="1"/>
<text x="217" y="107" text-anchor="middle" font-size="12" font-weight="600" fill="#3C3489">server.js</text>
<text x="217" y="122" text-anchor="middle" font-size="10" fill="#534AB7">Express entry point</text>

<!-- data.js -->
<rect x="20" y="92" width="110" height="40" rx="6" fill="#F1EFE8" stroke="#888780" stroke-width="0.8"/>
<text x="75" y="107" text-anchor="middle" font-size="12" font-weight="600" fill="#444441">data.js</text>
<text x="75" y="122" text-anchor="middle" font-size="10" fill="#5F5E5A">seed test data</text>

<!-- utils.js -->
<rect x="300" y="92" width="108" height="40" rx="6" fill="#F1EFE8" stroke="#888780" stroke-width="0.8"/>
<text x="354" y="107" text-anchor="middle" font-size="12" font-weight="600" fill="#444441">utils.js</text>
<text x="354" y="122" text-anchor="middle" font-size="10" fill="#5F5E5A">isAuth · isAdmin · JWT</text>

<!-- section label -->
<text x="215" y="153" text-anchor="middle" font-size="9" fill="#B4B2A9" letter-spacing="1">ROUTES</text>

<!-- productRoutes -->
<rect x="20" y="160" width="90" height="40" rx="6" fill="#E1F5EE" stroke="#0F6E56" stroke-width="0.8"/>
<text x="65" y="175" text-anchor="middle" font-size="11" font-weight="600" fill="#085041">productRoutes</text>
<text x="65" y="189" text-anchor="middle" font-size="9" fill="#0F6E56">/productsList</text>

<!-- userRoutes -->
<rect x="120" y="160" width="82" height="40" rx="6" fill="#E1F5EE" stroke="#0F6E56" stroke-width="0.8"/>
<text x="161" y="175" text-anchor="middle" font-size="11" font-weight="600" fill="#085041">userRoutes</text>
<text x="161" y="189" text-anchor="middle" font-size="9" fill="#0F6E56">/api/users</text>

<!-- orderRoutes -->
<rect x="212" y="160" width="90" height="40" rx="6" fill="#E1F5EE" stroke="#0F6E56" stroke-width="0.8"/>
<text x="257" y="175" text-anchor="middle" font-size="11" font-weight="600" fill="#085041">orderRoutes</text>
<text x="257" y="189" text-anchor="middle" font-size="9" fill="#0F6E56">/api/orders</text>

<!-- seedRoutes (disabled) -->
<rect x="312" y="160" width="95" height="40" rx="6" fill="#F1EFE8" stroke="#888780" stroke-width="0.8" stroke-dasharray="4 2"/>
<text x="359" y="175" text-anchor="middle" font-size="11" font-weight="600" fill="#5F5E5A">seedRoutes</text>
<text x="359" y="189" text-anchor="middle" font-size="9" fill="#888780">disabled in prod</text>

<!-- section label -->
<text x="215" y="220" text-anchor="middle" font-size="9" fill="#B4B2A9" letter-spacing="1">MONGOOSE MODELS</text>

<!-- productModel -->
<rect x="20" y="228" width="117" height="40" rx="6" fill="#FAECE7" stroke="#993C1D" stroke-width="0.8"/>
<text x="78" y="243" text-anchor="middle" font-size="11" font-weight="600" fill="#712B13">productModel</text>
<text x="78" y="257" text-anchor="middle" font-size="9" fill="#993C1D">name·slug·price·stock</text>

<!-- userModel -->
<rect x="148" y="228" width="106" height="40" rx="6" fill="#FAECE7" stroke="#993C1D" stroke-width="0.8"/>
<text x="201" y="243" text-anchor="middle" font-size="11" font-weight="600" fill="#712B13">userModel</text>
<text x="201" y="257" text-anchor="middle" font-size="9" fill="#993C1D">name·email·isAdmin</text>

<!-- orderModel -->
<rect x="265" y="228" width="142" height="40" rx="6" fill="#FAECE7" stroke="#993C1D" stroke-width="0.8"/>
<text x="336" y="243" text-anchor="middle" font-size="11" font-weight="600" fill="#712B13">orderModel</text>
<text x="336" y="257" text-anchor="middle" font-size="9" fill="#993C1D">items·shipping·payment</text>

<!-- MongoDB -->
<rect x="138" y="318" width="140" height="40" rx="6" fill="#F1EFE8" stroke="#5F5E5A" stroke-width="1"/>
<text x="208" y="333" text-anchor="middle" font-size="12" font-weight="600" fill="#2C2C2A">MongoDB</text>
<text x="208" y="348" text-anchor="middle" font-size="10" fill="#5F5E5A">via MONGO_URI (.env)</text>

<!-- API endpoints reference -->
<rect x="20" y="378" width="392" height="188" rx="6" fill="#F1EFE8" stroke="#D3D1C7" stroke-width="0.8"/>
<text x="32" y="396" font-size="10" font-weight="600" fill="#5F5E5A">API ENDPOINTS</text>
<text x="32" y="413" font-size="9" fill="#444441">GET  /productsList/api/products</text>
<text x="32" y="428" font-size="9" fill="#444441">GET  /productsList/api/products/slug/:slug</text>
<text x="32" y="443" font-size="9" fill="#444441">GET  /productsList/api/products/categories</text>
<text x="32" y="458" font-size="9" fill="#444441">POST /api/users/signin  ·  POST /api/users/signup</text>
<text x="32" y="473" font-size="9" fill="#444441">PUT  /api/users/profile  ·  GET /api/users (admin)</text>
<text x="32" y="488" font-size="9" fill="#444441">POST /api/orders  ·  GET /api/orders (admin)</text>
<text x="32" y="503" font-size="9" fill="#444441">GET  /api/orders/mine  ·  GET /api/orders/:id</text>
<text x="32" y="518" font-size="9" fill="#444441">PUT  /api/orders/:id/pay  ·  /:id/deliver (admin)</text>
<text x="32" y="533" font-size="9" fill="#444441">GET  /api/keys/paypal</text>
<text x="32" y="553" font-size="9" font-weight="600" fill="#993C1D">utils.js injects isAuth / isAdmin on protected routes</text>

<!-- ── Backend arrows ── -->
<line x1="217" y1="132" x2="100" y2="160" stroke="#534AB7" stroke-width="0.7" marker-end="url(#arr)"/>
<line x1="217" y1="132" x2="162" y2="160" stroke="#534AB7" stroke-width="0.7" marker-end="url(#arr)"/>
<line x1="217" y1="132" x2="254" y2="160" stroke="#534AB7" stroke-width="0.7" marker-end="url(#arr)"/>
<line x1="290" y1="110" x2="340" y2="160" stroke="#888780" stroke-width="0.6" stroke-dasharray="3 2" marker-end="url(#arr)" opacity="0.6"/>
<line x1="130" y1="110" x2="340" y2="160" stroke="#888780" stroke-width="0.6" stroke-dasharray="3 2" marker-end="url(#arr)" opacity="0.4"/>
<line x1="300" y1="118" x2="210" y2="160" stroke="#888780" stroke-width="0.6" stroke-dasharray="3 2" marker-end="url(#arr)" opacity="0.5"/>
<line x1="330" y1="120" x2="272" y2="160" stroke="#888780" stroke-width="0.6" stroke-dasharray="3 2" marker-end="url(#arr)" opacity="0.5"/>
<line x1="65" y1="200" x2="78" y2="228" stroke="#0F6E56" stroke-width="0.7" marker-end="url(#arr)"/>
<line x1="161" y1="200" x2="201" y2="228" stroke="#0F6E56" stroke-width="0.7" marker-end="url(#arr)"/>
<line x1="257" y1="200" x2="336" y2="228" stroke="#0F6E56" stroke-width="0.7" marker-end="url(#arr)"/>
<line x1="257" y1="200" x2="218" y2="228" stroke="#0F6E56" stroke-width="0.7" marker-end="url(#arr)" opacity="0.4"/>
<line x1="78" y1="268" x2="175" y2="318" stroke="#993C1D" stroke-width="0.7" marker-end="url(#arr)"/>
<line x1="201" y1="268" x2="208" y2="318" stroke="#993C1D" stroke-width="0.7" marker-end="url(#arr)"/>
<line x1="336" y1="268" x2="250" y2="318" stroke="#993C1D" stroke-width="0.7" marker-end="url(#arr)"/>

<!-- ────────────────────────────────
     FRONTEND PANEL  x=425..1385
──────────────────────────────── -->
<rect x="425" y="62" width="960" height="512" rx="8" fill="#FAFAF8" stroke="#D3D1C7" stroke-width="1"/>
<text x="905" y="82" text-anchor="middle" font-size="10" font-weight="600" fill="#5F5E5A" letter-spacing="1.5">FRONTEND  (React · React Router v6 · Bootstrap)</text>

<!-- index.js -->
<rect x="770" y="92" width="128" height="40" rx="6" fill="#F1EFE8" stroke="#5F5E5A" stroke-width="0.8"/>
<text x="834" y="107" text-anchor="middle" font-size="12" font-weight="600" fill="#2C2C2A">index.js</text>
<text x="834" y="122" text-anchor="middle" font-size="10" fill="#5F5E5A">ReactDOM.createRoot</text>

<!-- StoreProvider -->
<rect x="612" y="92" width="140" height="40" rx="6" fill="#EEEDFE" stroke="#534AB7" stroke-width="0.8"/>
<text x="682" y="107" text-anchor="middle" font-size="12" font-weight="600" fill="#3C3489">StoreProvider</text>
<text x="682" y="122" text-anchor="middle" font-size="10" fill="#534AB7">Store.js — context + reducer</text>

<!-- PayPalScriptProvider note -->
<rect x="918" y="92" width="162" height="40" rx="6" fill="#FAEEDA" stroke="#854F0B" stroke-width="0.8"/>
<text x="999" y="107" text-anchor="middle" font-size="11" font-weight="600" fill="#633806">PayPalScriptProvider</text>
<text x="999" y="122" text-anchor="middle" font-size="9" fill="#854F0B">⚠ in index.js AND App.js</text>

<!-- App.js -->
<rect x="770" y="162" width="128" height="40" rx="6" fill="#EEEDFE" stroke="#534AB7" stroke-width="1"/>
<text x="834" y="177" text-anchor="middle" font-size="12" font-weight="600" fill="#3C3489">App.js</text>
<text x="834" y="192" text-anchor="middle" font-size="10" fill="#534AB7">BrowserRouter + Routes</text>

<!-- Navbar, Footer -->
<rect x="434" y="230" width="148" height="40" rx="6" fill="#FAEEDA" stroke="#854F0B" stroke-width="0.8"/>
<text x="508" y="245" text-anchor="middle" font-size="11" font-weight="600" fill="#633806">Navbar</text>
<text x="508" y="259" text-anchor="middle" font-size="9" fill="#854F0B">+ SearchBox (embedded)</text>

<rect x="592" y="230" width="80" height="40" rx="6" fill="#FAEEDA" stroke="#854F0B" stroke-width="0.8"/>
<text x="632" y="251" text-anchor="middle" font-size="11" font-weight="600" fill="#633806">Footer</text>

<!-- ProtectedRoute, AdminRoute -->
<rect x="686" y="230" width="135" height="40" rx="6" fill="#FAEEDA" stroke="#854F0B" stroke-width="0.8"/>
<text x="753" y="245" text-anchor="middle" font-size="11" font-weight="600" fill="#633806">ProtectedRoute</text>
<text x="753" y="259" text-anchor="middle" font-size="9" fill="#854F0B">checks userInfo in Store</text>

<rect x="832" y="230" width="115" height="40" rx="6" fill="#FAEEDA" stroke="#854F0B" stroke-width="0.8"/>
<text x="889" y="245" text-anchor="middle" font-size="11" font-weight="600" fill="#633806">AdminRoute</text>
<text x="889" y="259" text-anchor="middle" font-size="9" fill="#854F0B">checks isAdmin flag</text>

<!-- Reusable components -->
<rect x="958" y="230" width="100" height="40" rx="6" fill="#FAEEDA" stroke="#854F0B" stroke-width="0.8"/>
<text x="1008" y="245" text-anchor="middle" font-size="11" font-weight="600" fill="#633806">Carousel</text>
<text x="1008" y="259" text-anchor="middle" font-size="9" fill="#854F0B">hero images</text>

<rect x="1068" y="230" width="115" height="40" rx="6" fill="#FAEEDA" stroke="#854F0B" stroke-width="0.8"/>
<text x="1125" y="245" text-anchor="middle" font-size="11" font-weight="600" fill="#633806">BrandBanner</text>
<text x="1125" y="259" text-anchor="middle" font-size="9" fill="#854F0B">brand logos</text>

<rect x="1193" y="230" width="126" height="40" rx="6" fill="#FAEEDA" stroke="#854F0B" stroke-width="0.8"/>
<text x="1256" y="245" text-anchor="middle" font-size="11" font-weight="600" fill="#633806">CheckOutSteps</text>
<text x="1256" y="259" text-anchor="middle" font-size="9" fill="#854F0B">progress indicator</text>

<!-- section label PUBLIC -->
<line x1="434" y1="284" x2="1370" y2="284" stroke="#D3D1C7" stroke-width="0.5"/>
<text x="520" y="298" font-size="9" font-weight="600" fill="#185FA5" letter-spacing="1">PUBLIC SCREENS</text>

<!-- DefaultScreen -->
<rect x="434" y="305" width="120" height="40" rx="6" fill="#E6F1FB" stroke="#185FA5" stroke-width="0.8"/>
<text x="494" y="319" text-anchor="middle" font-size="11" font-weight="600" fill="#0C447C">DefaultScreen</text>
<text x="494" y="333" text-anchor="middle" font-size="9" fill="#185FA5">route: /</text>

<!-- HomeScreen -->
<rect x="564" y="305" width="115" height="40" rx="6" fill="#E6F1FB" stroke="#185FA5" stroke-width="0.8"/>
<text x="621" y="319" text-anchor="middle" font-size="11" font-weight="600" fill="#0C447C">HomeScreen</text>
<text x="621" y="333" text-anchor="middle" font-size="9" fill="#185FA5">/productList</text>

<!-- ProductScreen -->
<rect x="689" y="305" width="120" height="40" rx="6" fill="#E6F1FB" stroke="#185FA5" stroke-width="0.8"/>
<text x="749" y="319" text-anchor="middle" font-size="11" font-weight="600" fill="#0C447C">ProductScreen</text>
<text x="749" y="333" text-anchor="middle" font-size="9" fill="#185FA5">/product/:slug</text>

<!-- SignIn -->
<rect x="819" y="305" width="85" height="40" rx="6" fill="#E6F1FB" stroke="#185FA5" stroke-width="0.8"/>
<text x="861" y="319" text-anchor="middle" font-size="11" font-weight="600" fill="#0C447C">SignIn</text>
<text x="861" y="333" text-anchor="middle" font-size="9" fill="#185FA5">/signin</text>

<!-- SignUp -->
<rect x="914" y="305" width="85" height="40" rx="6" fill="#E6F1FB" stroke="#185FA5" stroke-width="0.8"/>
<text x="956" y="319" text-anchor="middle" font-size="11" font-weight="600" fill="#0C447C">SignUp</text>
<text x="956" y="333" text-anchor="middle" font-size="9" fill="#185FA5">/signup</text>

<!-- SearchProducts -->
<rect x="1009" y="305" width="128" height="40" rx="6" fill="#E6F1FB" stroke="#185FA5" stroke-width="0.8"/>
<text x="1073" y="319" text-anchor="middle" font-size="11" font-weight="600" fill="#0C447C">SearchProducts</text>
<text x="1073" y="333" text-anchor="middle" font-size="9" fill="#185FA5">/searchProducts</text>

<!-- CartScreen -->
<rect x="1147" y="305" width="105" height="40" rx="6" fill="#E6F1FB" stroke="#185FA5" stroke-width="0.8"/>
<text x="1199" y="319" text-anchor="middle" font-size="11" font-weight="600" fill="#0C447C">CartScreen</text>
<text x="1199" y="333" text-anchor="middle" font-size="9" fill="#185FA5">/cart</text>

<!-- ImagesScreen -->
<rect x="1262" y="305" width="106" height="40" rx="6" fill="#E6F1FB" stroke="#185FA5" stroke-width="0.8"/>
<text x="1315" y="319" text-anchor="middle" font-size="11" font-weight="600" fill="#0C447C">ImagesScreen</text>
<text x="1315" y="333" text-anchor="middle" font-size="9" fill="#185FA5">used in DefaultScreen</text>

<!-- section label PROTECTED -->
<line x1="434" y1="358" x2="1370" y2="358" stroke="#D3D1C7" stroke-width="0.5"/>
<text x="536" y="372" font-size="9" font-weight="600" fill="#3B6D11" letter-spacing="1">PROTECTED SCREENS  (→ /signin if not authenticated)</text>

<!-- ShippingAdrScreen -->
<rect x="434" y="378" width="145" height="40" rx="6" fill="#EAF3DE" stroke="#3B6D11" stroke-width="0.8"/>
<text x="506" y="393" text-anchor="middle" font-size="11" font-weight="600" fill="#27500A">ShippingAdrScreen</text>
<text x="506" y="407" text-anchor="middle" font-size="9" fill="#3B6D11">/shipping</text>

<!-- PaymentMethodScreen -->
<rect x="589" y="378" width="148" height="40" rx="6" fill="#EAF3DE" stroke="#3B6D11" stroke-width="0.8"/>
<text x="663" y="393" text-anchor="middle" font-size="11" font-weight="600" fill="#27500A">PaymentMethod</text>
<text x="663" y="407" text-anchor="middle" font-size="9" fill="#3B6D11">/payment</text>

<!-- PlaceOrderScreen -->
<rect x="747" y="378" width="140" height="40" rx="6" fill="#EAF3DE" stroke="#3B6D11" stroke-width="0.8"/>
<text x="817" y="393" text-anchor="middle" font-size="11" font-weight="600" fill="#27500A">PlaceOrderScreen</text>
<text x="817" y="407" text-anchor="middle" font-size="9" fill="#3B6D11">/placeorder</text>

<!-- OrderScreen -->
<rect x="897" y="378" width="118" height="40" rx="6" fill="#EAF3DE" stroke="#3B6D11" stroke-width="0.8"/>
<text x="956" y="393" text-anchor="middle" font-size="11" font-weight="600" fill="#27500A">OrderScreen</text>
<text x="956" y="407" text-anchor="middle" font-size="9" fill="#3B6D11">/order/:id + PayPal</text>

<!-- OrderHistoryScreen -->
<rect x="1025" y="378" width="148" height="40" rx="6" fill="#EAF3DE" stroke="#3B6D11" stroke-width="0.8"/>
<text x="1099" y="393" text-anchor="middle" font-size="11" font-weight="600" fill="#27500A">OrderHistoryScreen</text>
<text x="1099" y="407" text-anchor="middle" font-size="9" fill="#3B6D11">/orderhistory</text>

<!-- ProfileScreen -->
<rect x="1183" y="378" width="120" height="40" rx="6" fill="#EAF3DE" stroke="#3B6D11" stroke-width="0.8"/>
<text x="1243" y="393" text-anchor="middle" font-size="11" font-weight="600" fill="#27500A">ProfileScreen</text>
<text x="1243" y="407" text-anchor="middle" font-size="9" fill="#3B6D11">/profile</text>

<!-- Product card (used by HomeScreen, SearchProducts) -->
<rect x="1313" y="378" width="50" height="40" rx="6" fill="#FAEEDA" stroke="#854F0B" stroke-width="0.5"/>
<text x="1338" y="399" text-anchor="middle" font-size="10" font-weight="600" fill="#633806">Product</text>

<!-- section label ADMIN -->
<line x1="434" y1="431" x2="1370" y2="431" stroke="#D3D1C7" stroke-width="0.5"/>
<text x="505" y="445" font-size="9" font-weight="600" fill="#A32D2D" letter-spacing="1">ADMIN SCREENS  (→ /signin if not admin)</text>

<!-- DashboardScreen -->
<rect x="434" y="452" width="200" height="40" rx="6" fill="#FCEBEB" stroke="#A32D2D" stroke-width="0.8"/>
<text x="534" y="467" text-anchor="middle" font-size="11" font-weight="600" fill="#791F1F">DashboardScreen</text>
<text x="534" y="481" text-anchor="middle" font-size="9" fill="#A32D2D">/admin/dashboard · all orders</text>

<!-- DashboardScreen1 -->
<rect x="644" y="452" width="200" height="40" rx="6" fill="#FCEBEB" stroke="#A32D2D" stroke-width="0.8"/>
<text x="744" y="467" text-anchor="middle" font-size="11" font-weight="600" fill="#791F1F">DashboardScreen1</text>
<text x="744" y="481" text-anchor="middle" font-size="9" fill="#A32D2D">/admin/users · all users</text>

<!-- ── CHECKOUT FLOW ── -->
<text x="905" y="445" font-size="9" font-weight="600" fill="#5F5E5A" letter-spacing="1">CHECKOUT FLOW</text>
<rect x="855" y="452" width="75" height="40" rx="6" fill="#E6F1FB" stroke="#185FA5" stroke-width="0.5"/>
<text x="892" y="474" text-anchor="middle" font-size="10" font-weight="600" fill="#0C447C">CartScreen</text>
<line x1="930" y1="472" x2="950" y2="472" stroke="#185FA5" stroke-width="1" marker-end="url(#arr)"/>
<rect x="950" y="452" width="65" height="40" rx="6" fill="#EAF3DE" stroke="#3B6D11" stroke-width="0.5"/>
<text x="982" y="474" text-anchor="middle" font-size="9" font-weight="600" fill="#27500A">Shipping</text>
<line x1="1015" y1="472" x2="1035" y2="472" stroke="#3B6D11" stroke-width="1" marker-end="url(#arr)"/>
<rect x="1035" y="452" width="65" height="40" rx="6" fill="#EAF3DE" stroke="#3B6D11" stroke-width="0.5"/>
<text x="1067" y="474" text-anchor="middle" font-size="9" font-weight="600" fill="#27500A">Payment</text>
<line x1="1100" y1="472" x2="1120" y2="472" stroke="#3B6D11" stroke-width="1" marker-end="url(#arr)"/>
<rect x="1120" y="452" width="65" height="40" rx="6" fill="#EAF3DE" stroke="#3B6D11" stroke-width="0.5"/>
<text x="1152" y="467" text-anchor="middle" font-size="9" font-weight="600" fill="#27500A">PlaceOrder</text>
<text x="1152" y="482" text-anchor="middle" font-size="8" fill="#3B6D11">POST /api/orders</text>
<line x1="1185" y1="472" x2="1205" y2="472" stroke="#3B6D11" stroke-width="1" marker-end="url(#arr)"/>
<rect x="1205" y="452" width="65" height="40" rx="6" fill="#EAF3DE" stroke="#3B6D11" stroke-width="0.5"/>
<text x="1237" y="467" text-anchor="middle" font-size="9" font-weight="600" fill="#27500A">Order</text>
<text x="1237" y="482" text-anchor="middle" font-size="8" fill="#3B6D11">PayPal button</text>
<line x1="1270" y1="452" x2="1310" y2="452" stroke="#3B6D11" stroke-width="1" marker-end="url(#arr)"/>
<rect x="1310" y="452" width="50" height="40" rx="6" fill="#E1F5EE" stroke="#0F6E56" stroke-width="0.5"/>
<text x="1335" y="468" text-anchor="middle" font-size="8" font-weight="600" fill="#085041">order</text>
<text x="1335" y="481" text-anchor="middle" font-size="8" fill="#0F6E56">Routes</text>

<!-- ── Frontend arrows ── -->
<line x1="770" y1="112" x2="752" y2="112" stroke="#5F5E5A" stroke-width="0.8" marker-end="url(#arr)"/>
<line x1="834" y1="132" x2="834" y2="162" stroke="#534AB7" stroke-width="0.8" marker-end="url(#arr)"/>
<line x1="880" y1="112" x2="918" y2="112" stroke="#5F5E5A" stroke-width="0.6" stroke-dasharray="3 2" marker-end="url(#arr)" opacity="0.6"/>
<line x1="800" y1="202" x2="550" y2="230" stroke="#534AB7" stroke-width="0.6" marker-end="url(#arr)" opacity="0.5"/>
<line x1="820" y1="202" x2="622" y2="230" stroke="#534AB7" stroke-width="0.6" marker-end="url(#arr)" opacity="0.5"/>
<line x1="834" y1="202" x2="753" y2="230" stroke="#534AB7" stroke-width="0.6" marker-end="url(#arr)" opacity="0.5"/>
<line x1="848" y1="202" x2="889" y2="230" stroke="#534AB7" stroke-width="0.6" marker-end="url(#arr)" opacity="0.5"/>

<!-- DefaultScreen uses Carousel + BrandBanner -->
<line x1="1008" y1="270" x2="494" y2="305" stroke="#854F0B" stroke-width="0.5" stroke-dasharray="3 2" marker-end="url(#arr)" opacity="0.35"/>
<line x1="1125" y1="270" x2="497" y2="305" stroke="#854F0B" stroke-width="0.5" stroke-dasharray="3 2" marker-end="url(#arr)" opacity="0.35"/>

<!-- HomeScreen + SearchProducts use Product card -->
<line x1="621" y1="345" x2="1338" y2="378" stroke="#854F0B" stroke-width="0.5" stroke-dasharray="3 2" marker-end="url(#arr)" opacity="0.3"/>
<line x1="1073" y1="345" x2="1338" y2="378" stroke="#854F0B" stroke-width="0.5" stroke-dasharray="3 2" marker-end="url(#arr)" opacity="0.3"/>

<!-- CheckOutSteps used by Shipping, Payment, PlaceOrder -->
<line x1="1256" y1="270" x2="560" y2="378" stroke="#854F0B" stroke-width="0.5" stroke-dasharray="3 2" marker-end="url(#arr)" opacity="0.3"/>
<line x1="1256" y1="270" x2="665" y2="378" stroke="#854F0B" stroke-width="0.5" stroke-dasharray="3 2" marker-end="url(#arr)" opacity="0.3"/>
<line x1="1256" y1="270" x2="817" y2="378" stroke="#854F0B" stroke-width="0.5" stroke-dasharray="3 2" marker-end="url(#arr)" opacity="0.3"/>

<!-- ─────────────────────────────────
     BUGS SECTION  y=584
───────────────────────────────── -->
<rect x="15" y="584" width="1370" height="188" rx="8" fill="#FCEBEB" stroke="#E24B4A" stroke-width="1"/>
<text x="30" y="605" font-size="11" font-weight="600" fill="#791F1F">⚠  KNOWN BUGS IN App.js  /  Store.js</text>

<text x="30" y="626" font-size="10" font-weight="600" fill="#A32D2D">Bug 1 — Duplicate route /order/:id</text>
<text x="30" y="641" font-size="10" fill="#791F1F">Two Routes share the same path. React Router v6 matches the first → OrderScreen runs unprotected. The ProtectedRoute wrapper is never reached.</text>

<text x="30" y="662" font-size="10" font-weight="600" fill="#A32D2D">Bug 2 — Duplicate element prop on /orderhistory and /profile</text>
<text x="30" y="677" font-size="10" fill="#791F1F">JSX silently ignores duplicate props; the ProtectedRoute element is discarded. Both screens are effectively public.</text>

<text x="30" y="698" font-size="10" font-weight="600" fill="#A32D2D">Bug 3 — PayPalScriptProvider double wrap</text>
<text x="30" y="713" font-size="10" fill="#791F1F">Declared in both index.js and App.js. The inner wrapper overrides the outer, making the one in index.js useless. Remove it from one file.</text>

<text x="30" y="734" font-size="10" font-weight="600" fill="#A32D2D">Bug 4 — Navbar links to /admin/orders (route does not exist)</text>
<text x="30" y="749" font-size="10" fill="#791F1F">App.js defines /admin/dashboard for DashboardScreen. The Navbar "Placed Orders" link points to /admin/orders → 404.</text>

<text x="700" y="626" font-size="10" font-weight="600" fill="#A32D2D">Bug 5 — Store.js: wrong localStorage key for userInfo</text>
<text x="700" y="641" font-size="10" fill="#791F1F">initialState reads localStorage.getItem('itemInfo') instead of 'userInfo' → userInfo is always null on page refresh.</text>

<text x="700" y="662" font-size="10" font-weight="600" fill="#A32D2D">Bug 6 — Store.js: typo StorePorvider</text>
<text x="700" y="677" font-size="10" fill="#791F1F">The exported name is StorePorvider (not StoreProvider). index.js imports the typo correctly, but any future import risks confusion.</text>

<text x="700" y="698" font-size="10" font-weight="600" fill="#A32D2D">Bug 7 — ProfileScreen: submitHandler defined inside itself</text>
<text x="700" y="713" font-size="10" fill="#791F1F">The inner duplicate submitHandler + useReducer call inside the outer submitHandler is unreachable dead code (React rules of hooks violation).</text>

<text x="700" y="734" font-size="10" font-weight="600" fill="#A32D2D">Bug 8 — CART_REMOVE_ITEM uses state.card (typo)</text>
<text x="700" y="749" font-size="10" fill="#791F1F">Store.js reducer case CART_REMOVE_ITEM spreads state.card instead of state.cart. Remove works visually (cartItems is correct) but loses cart state.</text>

<!-- ─────────────────────────────────
     LEGEND  y=782
───────────────────────────────── -->
<rect x="15" y="782" width="1370" height="138" rx="8" fill="#F1EFE8" stroke="#D3D1C7" stroke-width="1"/>
<text x="30" y="800" font-size="10" font-weight="600" fill="#5F5E5A">LEGEND</text>

<rect x="30" y="810" width="18" height="14" rx="3" fill="#EEEDFE" stroke="#534AB7" stroke-width="0.8"/>
<text x="54" y="822" font-size="10" fill="#444441">Entry point / Core config</text>

<rect x="200" y="810" width="18" height="14" rx="3" fill="#E1F5EE" stroke="#0F6E56" stroke-width="0.8"/>
<text x="224" y="822" font-size="10" fill="#444441">Routes (Express)</text>

<rect x="370" y="810" width="18" height="14" rx="3" fill="#FAECE7" stroke="#993C1D" stroke-width="0.8"/>
<text x="394" y="822" font-size="10" fill="#444441">Mongoose Models</text>

<rect x="540" y="810" width="18" height="14" rx="3" fill="#FAEEDA" stroke="#854F0B" stroke-width="0.8"/>
<text x="564" y="822" font-size="10" fill="#444441">Components / Guards</text>

<rect x="720" y="810" width="18" height="14" rx="3" fill="#E6F1FB" stroke="#185FA5" stroke-width="0.8"/>
<text x="744" y="822" font-size="10" fill="#444441">Public screens (no auth)</text>

<rect x="900" y="810" width="18" height="14" rx="3" fill="#EAF3DE" stroke="#3B6D11" stroke-width="0.8"/>
<text x="924" y="822" font-size="10" fill="#444441">Protected screens (ProtectedRoute)</text>

<rect x="1140" y="810" width="18" height="14" rx="3" fill="#FCEBEB" stroke="#A32D2D" stroke-width="0.8"/>
<text x="1164" y="822" font-size="10" fill="#444441">Admin-only screens (AdminRoute)</text>

<line x1="30" y1="845" x2="70" y2="845" stroke="#534AB7" stroke-width="1" marker-end="url(#arr)"/>
<text x="76" y="849" font-size="10" fill="#444441">direct dependency / renders</text>

<line x1="280" y1="845" x2="320" y2="845" stroke="#888780" stroke-width="1" stroke-dasharray="4 2" marker-end="url(#arr)"/>
<text x="326" y="849" font-size="10" fill="#444441">uses / imports (indirect)</text>

<rect x="530" y="837" width="18" height="14" rx="3" fill="#F1EFE8" stroke="#888780" stroke-width="0.8" stroke-dasharray="4 2"/>
<text x="554" y="849" font-size="10" fill="#444441">disabled / not in use</text>

<text x="30" y="870" font-size="9" fill="#888780">All API calls originate from the React screens on the right and are handled by the Express routes on the left. Authentication is enforced server-side via utils.js (isAuth / isAdmin middleware).</text>
<text x="30" y="885" font-size="9" fill="#888780">The Store.js context (React useReducer) manages client-side state: cart items, userInfo, and checkout data, persisted to localStorage between sessions.</text>

<!-- ─── subtle divider line between panels ─── -->
<line x1="420" y1="62" x2="420" y2="576" stroke="#D3D1C7" stroke-width="1" stroke-dasharray="5 4"/>

<!-- FOOTER -->
<text x="700" y="920" text-anchor="middle" font-size="9" fill="#B4B2A9">buzzpit-sitemap.svg · generated for GitHub documentation</text>
</svg>
